# Blender v2.80 (sub 75) OBJ File: ''
# www.blender.org

v 0.492240 1.000000 -0.492240
v 1.000000 -1.000000 -1.000000
v 0.492240 1.000000 0.492240
v 1.000000 -1.000000 1.000000
v -0.492240 1.000000 -0.492240
v -1.000000 -1.000000 -1.000000
v -0.492240 1.000000 0.492240
v -1.000000 -1.000000 1.000000
v 1.000000 1.000000 1.000000
v -1.000000 1.000000 1.000000
v 1.000000 1.000000 -1.000000
v -1.000000 1.000000 -1.000000
v 0.492240 1.563003 0.492240
v -0.492240 1.563003 0.492240
v 0.492240 1.563003 -0.492240
v -0.492240 1.563003 -0.492240
vn 0.0000 0.0000 1.0000
vn -1.0000 0.0000 0.0000
vn 0.0000 -1.0000 0.0000
vn 1.0000 0.0000 0.0000
vn 0.0000 0.0000 -1.0000
vn 0.0000 1.0000 0.0000
s off
f 7//1 3//1 13//1 14//1
f 4//1 9//1 10//1 8//1
f 8//2 10//2 12//2 6//2
f 6//3 2//3 4//3 8//3
f 2//4 11//4 9//4 4//4
f 6//5 12//5 11//5 2//5
f 3//6 7//6 10//6 9//6
f 1//6 3//6 9//6 11//6
f 7//6 5//6 12//6 10//6
f 5//6 1//6 11//6 12//6
f 15//6 16//6 14//6 13//6
f 1//5 5//5 16//5 15//5
f 3//4 1//4 15//4 13//4
f 5//2 7//2 14//2 16//2
