/* XPM */
static char * gnu_xpm[] = {
"14 14 2 1",
" 	c None",
"1	c #000000",
"      11      "
"     1111     "
"    111111    "
"      11      "
"  1   11   1  "
" 11   11   11 "
"11111111111111"
"11111111111111"
" 11   11   11 "
"  1   11   1  "
"      11      "
"    111111    "
"     1111     "
"      11      "};
