/* XPM */
static char * gnu_xpm[] = {
"12 15 2 1",
" 	c None",
"1	c #000000",
"   11  11   "
"   11  111  "
"   11  1111 "
"   11  11111"
"   11  11   "
"   11  11   "
"   11  11   "
"   11  11   "
"   11  11   "
"   11  11   "
"   11  11   "
"11111  11   "
" 1111  11   "
"  111  11   "
"   11  11   "};
