/* XPM */
static char * gnu_xpm[] = {
"18 14 2 1",
" 	c None",
"1	c #000000",
"   1111    1111   "
"   111      111   "
"   1111    1111   "
"   1 111  111 1   "
"  1  111  111  1  "
" 11   111111   11 "
"111111111111111111"
"111111111111111111"
" 11   111111   11 "
"  1  111  111  1  "
"   1 111  111 1   "
"   1111    1111   "
"   111      111   "
"   1111    1111   "};

