/* XPM */
static char * gnu_xpm[] = {
"14 14 2 1",
" 	c None",
"1	c #000000",
"      11      "
"     1111     "
"    111111    "
"      11      "
"      11      "
"      11      "
"      11      "
"     1111     "
"    111111    "
"   111  111   "
"1 111    111 1"
"1111      1111"
"111        111"
"1111      1111"};

